<mxfile host="app.diagrams.net" agent="Mozilla/5.0 (Windows NT 10.0; Win64; x64) AppleWebKit/537.36 (KHTML, like Gecko) Chrome/141.0.0.0 Safari/537.36 Edg/141.0.0.0" version="28.2.5">
  <diagram name="Page-1" id="5f0bae14-7c28-e335-631c-24af17079c00">
    <mxGraphModel dx="1227" dy="1454" grid="1" gridSize="10" guides="1" tooltips="1" connect="1" arrows="1" fold="1" page="1" pageScale="1" pageWidth="1100" pageHeight="850" background="none" math="0" shadow="0">
      <root>
        <mxCell id="0" />
        <mxCell id="1" parent="0" />
        <mxCell id="39150e848f15840c-1" value="Login Node" style="verticalAlign=top;align=left;spacingTop=8;spacingLeft=2;spacingRight=12;shape=cube;size=10;direction=south;fontStyle=4;html=1;rounded=0;shadow=0;comic=0;labelBackgroundColor=none;strokeWidth=1;fontFamily=Verdana;fontSize=12;FillColor=#006400;rotation=0;" parent="1" vertex="1">
          <mxGeometry x="770" y="-562.5" width="310" height="142.5" as="geometry" />
        </mxCell>
        <mxCell id="39150e848f15840c-2" value="HPC_Master Node" style="verticalAlign=top;align=left;spacingTop=8;spacingLeft=2;spacingRight=12;shape=cube;size=10;direction=south;fontStyle=4;html=1;rounded=0;shadow=0;comic=0;labelBackgroundColor=none;strokeWidth=1;fontFamily=Verdana;fontSize=12" parent="1" vertex="1">
          <mxGeometry x="770" y="-390" width="300" height="190" as="geometry" />
        </mxCell>
        <mxCell id="e2PQEoeL9oT5j41XfhCf-1" value="Client (Us)" style="shape=umlActor;verticalLabelPosition=bottom;verticalAlign=top;html=1;outlineConnect=0;" parent="1" vertex="1">
          <mxGeometry x="905" y="-750" width="40" height="80" as="geometry" />
        </mxCell>
        <mxCell id="e2PQEoeL9oT5j41XfhCf-15" value="«interface»&lt;br&gt;&lt;b&gt;NetBoot Images&lt;/b&gt;" style="html=1;rounded=0;shadow=0;comic=0;labelBackgroundColor=none;strokeWidth=1;fontFamily=Verdana;fontSize=12;align=center;" parent="1" vertex="1">
          <mxGeometry x="940" y="-470" width="130" height="50" as="geometry" />
        </mxCell>
        <mxCell id="2" value="&lt;b&gt;SLURM&lt;/b&gt;" style="shape=module;align=left;spacingLeft=20;align=center;verticalAlign=top;whiteSpace=wrap;html=1;" parent="1" vertex="1">
          <mxGeometry x="980" y="-310" width="80" height="40" as="geometry" />
        </mxCell>
        <mxCell id="4" value="&lt;b&gt;NIS Server&lt;/b&gt;" style="shape=module;align=left;spacingLeft=20;align=center;verticalAlign=top;whiteSpace=wrap;html=1;" parent="1" vertex="1">
          <mxGeometry x="980" y="-360" width="80" height="40" as="geometry" />
        </mxCell>
        <mxCell id="5" value="«interface»&lt;br&gt;&lt;b&gt;NFS Client&lt;/b&gt;" style="html=1;rounded=0;shadow=0;comic=0;labelBackgroundColor=none;strokeWidth=1;fontFamily=Verdana;fontSize=12;align=center;" parent="1" vertex="1">
          <mxGeometry x="770" y="-250" width="110" height="50" as="geometry" />
        </mxCell>
        <mxCell id="7" value="" style="group" parent="1" vertex="1" connectable="0">
          <mxGeometry x="800" y="-140" width="240" height="110" as="geometry" />
        </mxCell>
        <mxCell id="8" value="Red1&lt;div&gt;&lt;br&gt;&lt;/div&gt;" style="verticalAlign=top;align=left;spacingTop=8;spacingLeft=2;spacingRight=12;shape=cube;size=10;direction=south;fontStyle=4;html=1;whiteSpace=wrap;" parent="7" vertex="1">
          <mxGeometry width="240" height="110" as="geometry" />
        </mxCell>
        <mxCell id="9" value="«interface»&lt;br&gt;&lt;b&gt;NFS Client&lt;/b&gt;" style="html=1;rounded=0;shadow=0;comic=0;labelBackgroundColor=none;strokeWidth=1;fontFamily=Verdana;fontSize=12;align=center;" parent="7" vertex="1">
          <mxGeometry x="40" y="10" width="100" height="60" as="geometry" />
        </mxCell>
        <mxCell id="10" value="«package»&lt;br&gt;&lt;b&gt;OpenMPI&lt;/b&gt;" style="html=1;rounded=0;shadow=0;comic=0;labelBackgroundColor=none;strokeWidth=1;fontFamily=Verdana;fontSize=12;align=center;" parent="7" vertex="1">
          <mxGeometry x="140" y="10" width="90" height="30" as="geometry" />
        </mxCell>
        <mxCell id="11" value="«inteface»&lt;br&gt;&lt;b&gt;Node Exporter&lt;/b&gt;" style="html=1;rounded=0;shadow=0;comic=0;labelBackgroundColor=none;strokeWidth=1;fontFamily=Verdana;fontSize=12;align=center;" parent="7" vertex="1">
          <mxGeometry x="40" y="70" width="100" height="40" as="geometry" />
        </mxCell>
        <mxCell id="7RKxuz30Merwhc904fk3-25" value="«interface»&lt;br&gt;&lt;b&gt;NIS Client&lt;/b&gt;" style="html=1;rounded=0;shadow=0;comic=0;labelBackgroundColor=none;strokeWidth=1;fontFamily=Verdana;fontSize=12;align=center;" vertex="1" parent="7">
          <mxGeometry x="140" y="40" width="90" height="30" as="geometry" />
        </mxCell>
        <mxCell id="7RKxuz30Merwhc904fk3-24" value="«package»&lt;br&gt;&lt;b&gt;SLURM Client&lt;/b&gt;" style="html=1;rounded=0;shadow=0;comic=0;labelBackgroundColor=none;strokeWidth=1;fontFamily=Verdana;fontSize=12;align=center;" vertex="1" parent="7">
          <mxGeometry x="140" y="70" width="90" height="40" as="geometry" />
        </mxCell>
        <mxCell id="12" value="&lt;b&gt;Ansible&lt;/b&gt;" style="shape=module;align=left;spacingLeft=20;align=center;verticalAlign=top;whiteSpace=wrap;html=1;" parent="1" vertex="1">
          <mxGeometry x="980" y="-260" width="80" height="40" as="geometry" />
        </mxCell>
        <mxCell id="16" value="«interface»&lt;br&gt;&lt;b&gt;SSH&lt;/b&gt;" style="html=1;rounded=0;shadow=0;comic=0;labelBackgroundColor=none;strokeWidth=1;fontFamily=Verdana;fontSize=12;align=center;" parent="1" vertex="1">
          <mxGeometry x="875" y="-550" width="100" height="30" as="geometry" />
        </mxCell>
        <mxCell id="17" value="«interface»&lt;br&gt;&lt;b&gt;SSH&lt;/b&gt;" style="html=1;rounded=0;shadow=0;comic=0;labelBackgroundColor=none;strokeWidth=1;fontFamily=Verdana;fontSize=12;align=center;" parent="1" vertex="1">
          <mxGeometry x="900" y="-380" width="70" height="32.5" as="geometry" />
        </mxCell>
        <mxCell id="7RKxuz30Merwhc904fk3-26" value="&lt;b&gt;NFS Server&lt;/b&gt;" style="shape=module;align=left;spacingLeft=20;align=center;verticalAlign=top;whiteSpace=wrap;html=1;" vertex="1" parent="1">
          <mxGeometry x="780" y="-510" width="90" height="40" as="geometry" />
        </mxCell>
        <mxCell id="7RKxuz30Merwhc904fk3-29" value="«interface»&lt;br&gt;&lt;b&gt;Prometheus&lt;/b&gt;" style="html=1;rounded=0;shadow=0;comic=0;labelBackgroundColor=none;strokeWidth=1;fontFamily=Verdana;fontSize=12;align=center;" vertex="1" parent="1">
          <mxGeometry x="860" y="-340" width="110" height="50" as="geometry" />
        </mxCell>
        <mxCell id="7RKxuz30Merwhc904fk3-31" style="edgeStyle=none;curved=1;rounded=0;orthogonalLoop=1;jettySize=auto;html=1;fontSize=12;startSize=8;endSize=8;" edge="1" parent="1" target="16">
          <mxGeometry relative="1" as="geometry">
            <mxPoint x="925" y="-650" as="sourcePoint" />
          </mxGeometry>
        </mxCell>
        <mxCell id="7RKxuz30Merwhc904fk3-32" value="«interface»&lt;br&gt;&lt;b&gt;Grafana&lt;/b&gt;" style="html=1;rounded=0;shadow=0;comic=0;labelBackgroundColor=none;strokeWidth=1;fontFamily=Verdana;fontSize=12;align=center;" vertex="1" parent="1">
          <mxGeometry x="770" y="-340" width="90" height="50" as="geometry" />
        </mxCell>
        <mxCell id="7RKxuz30Merwhc904fk3-34" value="«interface»&lt;br&gt;&lt;b&gt;/mnt/hpc_shared&lt;/b&gt;" style="html=1;rounded=0;shadow=0;comic=0;labelBackgroundColor=none;strokeWidth=1;fontFamily=Verdana;fontSize=12;align=center;" vertex="1" parent="1">
          <mxGeometry x="940" y="-520" width="130" height="50" as="geometry" />
        </mxCell>
      </root>
    </mxGraphModel>
  </diagram>
</mxfile>
